<?xml version="1.0" encoding="UTF-8"?><svg id="_レイヤー_2" xmlns="http://www.w3.org/2000/svg" viewBox="0 0 765.56 581.48"><defs><style>.cls-1{fill:#fff;}</style></defs><g><polygon class="cls-1" points="555.75 299.27 555.75 433.39 756.74 576.59 756.74 487.66 555.75 299.27"/><polygon class="cls-1" points="209.81 299.27 8.83 487.66 8.83 576.59 209.81 433.39 209.81 299.27"/><polygon class="cls-1" points="534.52 229.72 382.78 4.89 231.05 229.72 231.05 418.26 382.78 310.15 534.52 418.26 534.52 229.72"/></g><polygon class="cls-1" points="700.5 567.49 700.5 567.49 382.78 341.12 65.06 567.49 65.06 567.49 82.71 576.59 382.78 362.79 682.86 576.59 700.5 567.49"/><polygon class="cls-1" points="657.19 571.42 657.19 571.42 382.78 375.91 108.37 571.42 108.37 571.42 118.4 576.59 382.78 388.22 647.16 576.59 657.19 571.42"/><polygon class="cls-1" points="382.78 520.77 447.63 552.1 512.49 520.77 382.78 428.35 253.07 520.77 317.93 552.1 382.78 520.77"/></svg>