<?xml version="1.0" encoding="utf-8"?><svg xmlns="http://www.w3.org/2000/svg" viewBox="0 0 16 206"><title>sidebar-tab</title><path d="M.5,205.5V.5H6c5.7,0,9.5,3.8,9.5,9.5V196c0,5.8-3.7,9.5-9.5,9.5Z" fill="#434348"/><path d="M6,1c5.5,0,9,3.5,9,9V196c0,5.5-3.5,9-9,9H1V1H6M6,0H0V206H6c6,0,10-4,10-10V10C16,4,12,0,6,0Z" fill="#161616"/><polygon points="13 100 8 100 8 98 3 102 8 106 8 104 13 104 13 100" fill="#fdfefe"/><polygon points="13 40 8 40 8 38 3 42 8 46 8 44 13 44 13 40" fill="#fdfefe"/><polygon points="13 160 8 160 8 158 3 162 8 166 8 164 13 164 13 160" fill="#fdfefe"/></svg>